<svg width="0" height="0" class="hidden"><symbol xmlns="http://www.w3.org/2000/svg" xmlns:xlink="http://www.w3.org/1999/xlink" viewBox="0 0 130.07 30.801" id="logo"><defs><symbol id="b" overflow="visible"><path d="M27.043-52.539c0 .11-.113.332-.223.664a77.165 77.165 0 00-3.308 6.844 320.385 320.385 0 01-3.645 8.168c-.11.328-.55 1.101-1.215 2.316-.66 1.215-1.433 2.758-2.316 4.524-.883 1.765-1.766 3.754-2.648 5.851s-1.657 4.196-2.32 6.293a31.686 31.686 0 00-1.653 4.524c-.445 1.547-.996 3.09-1.547 4.527-.332.77-.664 1.543-.992 2.316L6.07-4.195c-.332.773-.66 1.547-.882 2.207-.22.664-.332 1.215-.332 1.656 0 .773.332 1.437.996 1.988.66.551 1.433.992 2.316 1.324.883.332 1.766.551 2.648.774.883.219 1.434.328 1.766.441.11 0 .223 0 .442-.113.222-.11.332-.11.44-.11h.774c.332 0 .551.11.774.442.219-.11.441-.219.773-.332.328-.11.442-.328.442-.66.109.11.218.11.328.11.113-.22.113-.442.113-.774 0-.328.11-.442.328-.442.223 0 .332.114.332.332 0 .223 0 .332.11.332.113 0 .222-.109.332-.332.109-.218.222-.332.332-.441l.218.664c0-.113 0-.113.114-.113.11 0 .218 0 .328-.11 0 .223-.11.442-.219.664-.11.22-.223.442-.223.77v.441h.223c.11 0 .219-.109.332-.328.11-.222.219-.554.441-1.105.22-.551.442-1.324.774-2.426.11-.332.219-.555.219-.664l.222-.883c.11-.441.328-1.105.66-1.988.333-.883.883-2.207 1.657-3.863.11-.442.441-.993.883-1.653.44-.664.882-1.328 1.324-2.097.441-.774.883-1.547 1.215-2.32.332-.77.55-1.434.55-2.098v-.22c.223-.109.442-.331.551-.663.113-.328.223-.551.223-.66 0-.11 0-.223-.11-.332.551-.774.883-1.434.993-2.098.109-.66.332-1.324.664-1.875.328-.332.55-.774.66-1.324.55-1.766 1.433-3.754 2.648-5.961 1.215-2.207 2.207-4.082 2.98-5.739.11-.441.442-1.105.883-1.988.442-.883.665-1.433.665-1.765v-.223c.882-.883 1.543-1.985 1.984-3.2a26.606 26.606 0 011.656-3.64c.11-.223.223-.555.442-.883.222-.332.44-.773.664-1.215.218-.44.441-.882.66-1.214.222-.332.332-.551.441-.664l.332-.66c.223-.442.442-.883.774-1.434.332-.555.55-.996.773-1.438.219-.441.328-.66.441-.66-.332 0-.554-.113-.554-.332 0-.223.222-.332.554-.441-.222-.11-.332-.223-.332-.332 0-.332.11-.551.332-.551.22 0 .442-.11.551-.223h.219c.664-.11 1.438-.328 2.32-.55.883-.22 1.543-.333 2.098-.333h1.101c.11 0 .333.114.665.223a6.71 6.71 0 011.656-.223c-.113 0 0 0 .441-.109.442-.11.883-.219 1.324-.332.442-.11.883-.328 1.325-.55.441-.223.66-.442.66-.774-.219-.219-.66-.332-1.324-.442-.66-.109-1.434-.109-2.207-.109l-2.317-.11c-.773 0-1.324 0-1.656-.113-.332 0-1.324-.218-2.871-.55-1.543-.332-3.531-.551-5.848-.551-.554-.332-.996-.664-1.324-.992-.773-.555-1.215-1.106-1.215-1.657-.11-.113-.222-.113-.222 0 0 .11 0 .22-.11.329l-.219-.22c-.113-.109-.664-.44-1.77-1.105-1.1-.66-2.206-.992-3.417-.992-.332 0-.664.11-.996.442l-.774.773c0 .55-.109.992-.441 1.324-.328.332-.66.664-.992.992 0 .114-.883.223-2.649.332l-5.96.551c-2.208.223-4.305.332-6.29.442-1.988.113-3.203.222-3.644.332h-.66c-.664.109-1.328.222-1.88.332-1.1.218-2.097.332-3.089.332h-.55l-.997.328c-.219.113-.441.222-.66.222-.223 0-.332.11-.441.22-.442.44-.664.773-.664.995 0 .219-.11.551-.22.883l1.325 1.102c.441.332 1.102.554 1.875.554.332 0 .664 0 .996-.113.328-.11.66-.11.992-.11H9.27c.332 0 .773 0 1.328-.109.55-.109 1.101-.222 1.765-.332.66-.11 1.211-.218 1.766-.332.55-.11.883-.11.992-.11h2.207c.774 0 1.547-.108 2.32-.218.77-.113 1.653-.223 2.649-.223h.66c0-.109 0-.109.11-.109l.222.11a1.887 1.887 0 011.106-.333h.77c.331 0 .773 0 1.214-.109s.883-.219 1.324-.332c0 .332-.219.996-.773 1.879-.551.883-.993 1.543-1.325 1.875.114 0 .223 0 .332.11z"></path></symbol><symbol id="c" overflow="visible"><path d="M41.832-11.809c.11-.441.219-.773.219-.883v-1.105c0-.219.113-.551.332-.883.222-.332.332-.664.332-.992 0-2.54-.332-5.188-.883-7.84-.55-2.648-.883-5.188-.883-7.613 0-.332-.11-.551-.332-.664-.219-.11-.332-.22-.332-.329 0-.222.223-.441.774-.664.55-.222.882-.441 1.105-.55 1.875-.883 3.531-1.547 4.965-1.989 1.437-.441 2.648-1.101 3.754-1.875.773-.554 1.765-1.215 3.09-2.097 1.324-.883 2.761-2.207 4.304-4.086.11-.11.442-.328.992-.77.555-.441 1.106-.996 1.657-1.656.554-.664 1.105-1.438 1.547-2.32s.66-1.766.66-2.758c0-.442-.11-.774-.219-1.106-.11-.328-.223-.66-.223-.992v-.219c0-1.765-.77-3.203-2.316-4.195-1.547-.992-3.422-1.765-5.52-2.43a32.283 32.283 0 00-6.62-1.324 219.128 219.128 0 01-6.184-.66c-.219 0-.328-.113-.328-.332l-.114-.773c0-.22-.11-.442-.218-.66-.11-.223-.223-.333-.442-.333h-.223c-.328 0-.769-.222-1.324-.664-.55-.441-.992-.66-1.324-.66-.11-.11-.441-.222-.883-.441-.441-.223-.883-.442-1.324-.664-.441-.219-.992-.442-1.543-.551-.555-.11-.883-.223-1.105-.223-.11 0-.551.114-1.325.332-.773.223-1.433.774-1.988 1.547-.11.11-.441.883-.992 2.207-.55 1.324-1.215 2.98-2.098 4.965-.883 1.988-1.875 4.086-2.867 6.293a39.539 39.539 0 01-3.203 5.738c-.11.114-.442.664-.992 1.547-.551.883-1.324 1.985-2.207 3.422-.883 1.434-1.766 2.98-2.762 4.637-.992 1.652-1.875 3.199-2.648 4.746-.11.11-.22.441-.332.883l-.329 1.324a4.056 4.056 0 01-.554 1.21c-.219.333-.442.555-.66.665v.223c0 .44-.332 1.324-.996 2.757-.66 1.434-1.543 3.09-2.536 5.078-.996 1.985-1.988 4.082-3.093 6.403a159.737 159.737 0 00-2.977 6.62C.55-6.18.332-5.628 0-4.968A39.311 39.311 0 01-1.106-2.87c-.441.773-.77 1.546-1.101 2.32C-2.54.222-2.65.882-2.65 1.433c0 .332.11.774.22 1.215.112.441.44.664.882.664h.113c.328 0 .551.11.77.219.222.11.441.222.773.332-.11.11-.11.219-.11.332 0 .11-.109.219-.222.219L0 4.636c.222.22.55.442.883.66.332.223.773.442 1.324.665.55.218 1.105.332 1.656.332.11 0 .219 0 .441-.114.22-.11.332-.11.442-.11s.222.11.332.224c.11.109.219.218.332.218h.66c.11 0 .223 0 .223.11 0 .113 0 .113.11.113s.218 0 .44-.113c.22-.11.332-.11.442-.11.332 0 .66.11.992.223l.992.328c.114 0 .446-.219.887-.66s.77-.883.992-1.324l.219.441c0-.55.223-.996.773-1.324.223.219.332.328.442.328.441 0 .883-.441 1.215-1.324.332-.883.773-1.543 1.214-1.875 0-.883.442-1.656 1.325-2.43.882-.77 1.656-1.984 2.316-3.75.332-.555.664-1.105.996-1.656.328-.55.77-1.434 1.324-2.648.551-1.215 1.324-2.98 2.317-5.188.992-2.207 2.316-5.3 3.972-9.164.11-.219.223-.66.442-1.324.222-.66.441-1.324.664-2.094.219-.773.55-1.547.992-2.32s.883-1.434 1.434-1.985l.113.551v.332c0 .55-.113 1.102-.332 1.652a4.411 4.411 0 00-.332 1.657c0 .882 0 1.765.11 2.648.112.883.222 1.77.331 2.652 0 .883.11 1.985.332 3.309.219 1.324.442 2.871.774 4.527.328 1.656.55 3.422.77 5.297.222 1.875.331 3.64.331 5.41V.11c0 .664 0 1.324.114 1.988.109.66.218 1.324.441 1.875.219.551.66.883 1.21.883h.442c.332 0 .555.113.774.223.222.109.441.218.664.218.219-.109.441-.218.66-.328.223-.113.441-.222.664-.222.992-.223 1.656-.664 1.984-1.434.332-.773.664-1.215.996-1.324l.329-.332v-.332c0-.332 0-.66.113-.992.11-.332.11-.664.11-.997v-3.75a98.391 98.391 0 00-.333-2.207c-.11-.665-.219-1.325-.219-1.989 0-.332 0-.55.11-.66 0-.113-.11-.223-.223-.332zM30.793-31.457v-.11c0-.44.332-.882.883-1.324.555-.441.883-1.105.883-2.097l-.11-.223c0-.11.11-.219.223-.219.11 0 .219-.11.332-.222.55-1.325 1.102-2.649 1.766-3.864.66-1.21 1.324-2.535 2.093-3.972l-.11-.22c0-.112 0-.222.11-.331.555-1.434 1.106-2.649 1.547-3.645.442-.992.992-2.207 1.547-3.64 0-.11 0-.442.11-1.106.109-.66.218-1.324.44-2.094.22-.773.442-1.437.661-2.097.223-.664.555-.996.996-.996.55.113 1.102.222 1.656.222h1.653a76.39 76.39 0 014.968 1.325 18.8 18.8 0 013.641 1.546c.996.551 1.766 1.325 2.207 2.207.445.883.664 2.098.664 3.532a5.531 5.531 0 01-.992 2.648c-.555.773-1.324 1.547-2.207 2.316a35.36 35.36 0 01-2.98 2.32c-1.106.774-2.208 1.657-3.313 2.54-2.758 1.875-4.856 3.199-6.293 3.973-1.434.773-2.648 1.324-3.64 1.656-.993.328-1.989.55-2.872.66-.883.113-2.207.441-3.863.996z"></path></symbol><symbol id="d" overflow="visible"><path d="M40.285-26.602c.113-.11.223-.219.332-.441.11-.22.223-.329.332-.442 0 .113 0 .223.11.332.109-.11.222-.219.331-.332-.109-.11-.222-.219-.332-.328a13.31 13.31 0 00-.332-.332l.664-.332v.664c.22 0 .332-.113.332-.445v-.66c0-.11 0-.11.11-.11h.332c.219 0 .55-.113.992-.441l1.324-.996c.442-.328.883-.66 1.325-.992.44-.333.773-.551.992-.66.773-.333 1.547-.887 2.32-1.548a23.123 23.123 0 002.316-2.316c.774-.883 1.547-1.77 2.32-2.652.77-.883 1.434-1.653 2.095-2.317.44-.773.886-1.433 1.214-1.875.332-.441.664-.882.883-1.214.223-.332.442-.664.664-.993.219-.332.442-.773.66-1.324.332-.664.883-1.547 1.657-2.652.773-1.102 1.105-2.094 1.105-2.867-.11 0-.223-.114-.223-.442 0-.113.114-.332.332-.554.223-.22.332-.442.332-.77-.332-.332-.441-.555-.441-.664v-.883h.441c-.109-.332-.222-.66-.222-.883 0-.218-.11-.441-.219-.773 0-.992-.223-1.875-.55-2.648a6.27 6.27 0 00-1.329-1.989c-.55-.55-1.101-1.101-1.652-1.543-.555-.441-1.106-.883-1.547-1.324.223-.223.332-.332.332-.441-.55-.774-1.438-1.438-2.54-1.989-1.105-.55-2.316-.773-3.53-.773h-.664c-.332 0-.66-.11-.883-.442-.219-.328-.66-.44-1.215-.44-.11 0-.66.222-1.543.663-.883.442-1.879.883-2.871 1.215.11-.113 0 0-.332.328-.328.332-.77.664-1.324.996-.551.332-1.102.66-1.657.992-.55.332-.992.442-1.324.442-.11 0-.55.332-1.21 1.105-.665.77-1.657 1.543-2.872 2.317-.441.332-1.324 1.105-2.648 2.316-1.324 1.215-2.871 2.762-4.637 4.637-1.765 1.879-3.64 4.086-5.629 6.625-1.988 2.535-3.863 5.297-5.738 8.164-.555.773-1.215 1.77-1.988 2.87-.774 1.106-1.547 2.208-2.207 3.313a108.015 108.015 0 00-1.875 3.2c-.555.992-.774 1.879-.774 2.539a80.1 80.1 0 00-1.656 4.527c-.441 1.324-.883 2.535-1.434 3.64a14.056 14.056 0 01-1.988 2.981c-.773.883-1.988 1.656-3.531 2.43v-.113c-.11.113-.223.222-.223.332 0 .109-.11.222-.218.332h1.433l-.883.882c-.218.22-.55.442-.882.66.55 0 .882 0 .992.114.113.11.332.11.554.11l2.317-.333v.442c0 1.656-.223 3.422-.664 5.297-.442 1.878-.77 3.644-.883 5.3 0 .66.113 1.215.441 1.657.332.44.664.882 1.106 1.324.441.441.883.883 1.324 1.21.441.333.664.665.773.997.551.992 1.215 1.984 2.098 2.867.883.883 1.875 1.547 3.09 2.098 1.215.554 2.426.996 3.64 1.324 1.215.332 2.43.441 3.645.441h1.434c.55 0 .992-.11 1.324-.328.664-.332 1.215-.664 1.547-.996.332-.328.66-.66.992-.992l.992-.992c.332-.332.774-.555 1.438-.774h-.223c-.11 0 .223 0 .883-.11.664-.112 1.547-.222 2.539-.44.992-.223 1.988-.442 2.98-.774.993-.332 1.766-.664 2.317-1.106.113.114.222.114.332.114l.332-.332.11.11c.109-.11.773-.333 1.878-.774 1.102-.442 2.094-.883 3.09-1.434-.113.11 0 .11.441 0s.883-.332 1.434-.664c.55-.328 1.105-.66 1.656-1.102.55-.441.883-.992 1.102-1.547.113-.218.441-.55.996-.882.55-.332 1.101-.774 1.656-1.215.55-.442 1.102-.992 1.652-1.543.555-.55.774-1.106.774-1.656v-.664c-.11.113-.332.113-.66.113h-.332c-.332 0-.551.11-.551.328 0 .223-.223.555-.664.996-2.758 2.098-5.961 4.082-9.602 5.848-3.644 1.765-8.058 2.98-13.246 3.644-2.539 0-4.195-.222-4.965-.664-.773-.441-1.214-1.324-1.214-2.758v-2.429c0-.66.109-1.324.441-1.985.332-.664.66-1.214.992-1.77-.11.114.11-.109.55-.769.442-.664.665-1.324.665-2.097a14.18 14.18 0 001.434-2.098c.332-.55.664-1.215.996-1.875a4.252 4.252 0 00.441-1.879l-.113-.219c0-.11.222-.332.664-.664.441-.332.66-.66.66-.992 0-.11-.11-.223-.219-.332.219-.219.332-.441.332-.55v-.223l.442-.66v-.11c0-.223.218-.441.66-.555l-.332-.328.332-.332.332-.332c-.11.332-.223.664-.332.883-.11.223-.219.441-.442.664.11-.113.223-.223.332-.332l.333-.332v.883l.44-.66c.11-.223.22-.442.22-.774v-.11c.222-.222.441-.445.554-.663.11-.223.328-.442.551-.551-.332.219-.11.219.66-.113.774-.328 1.657-.77 2.762-1.325a79.336 79.336 0 003.09-1.652c.992-.555 1.433-.887 1.433-.996s0-.11-.109-.11c0-.109.11-.222.441-.331.332-.11.551-.22.665-.332-.114 0-.114 0-.114.113 0 .11-.11.219-.219.328.22-.11.333-.219.333-.328v-.555c0-.11.109-.219.218-.219.223 0 .332.11.332.333.11 0 .219-.114.332-.442zM21.633-10.043v.883c0 .441-.219.66-.55.66-.223 0-.333 0-.442-.11-.11.11-.11-.109 0-.55s.332-.664.66-.664c.113 0 .223 0 .332.11-.11-.442-.219-.77-.219-.993.11-.11.219-.332.328-.55.114-.224.223-.333.332-.333s.223 0 .332.11c-.222.113-.332.44-.332.996 0 .55-.218.882-.55.882zm10.926-15.562c1.77-2.207 3.754-4.969 5.96-8.39s4.747-6.731 7.509-9.934c.11 0 .328-.219.66-.66s.773-.996 1.215-1.547.882-1.215 1.324-1.875c.441-.664.773-1.215.883-1.656l-.11-.11c.11-.113.219-.332.332-.555.11-.218.22-.328.328-.328-.109.11-.109.328-.109.551.11 0 .223-.11.332-.441.11-.332.219-.551.332-.664-.113-.328-.223-.66-.332-1.102h.66v.66l.114.113c.109-.113.332-.445.66-.886.332-.442.664-.883 1.105-1.324s.992-.77 1.766-1.102 1.656-.441 2.648-.441c.332.55.551 1.101.664 1.765.11.66.11 1.324.11 1.875 0 .332-.11.774-.223 1.324-.55 2.43-1.324 4.418-2.207 5.852a27.253 27.253 0 01-2.867 3.863 27.235 27.235 0 01-3.203 2.98c-1.102.884-2.098 1.985-3.09 3.2-1.875 1.879-4.195 3.644-7.063 5.297-2.87 1.656-5.41 3.203-7.726 4.527zM20.09-5.851c-.555.773-.883 1.438-.996 1.988-.11.551-.442 1.106-.992 1.657a.848.848 0 01-.223-.551c0-.332.113-.883.441-1.656.332-.774.555-1.215.774-1.438h.664zm2.867-8.496c.223.219.332.332.332.441 0 .332-.11.66-.441.883-.332.219-.442.55-.442.883v.11c0 .109-.222.331-.664.663l-.109-.113.223-.328a5.78 5.78 0 01.441-.773c.219-.332.328-.665.441-.993.11-.332.22-.554.22-.664v-.222zm33.004-46.801c-.441-.11-.883-.219-1.215-.219-.332 0-.55-.113-.55-.441 0-.223.109-.442.328-.664.222.11.554.332.883.664.332.328.554.55.554.66zM19.094-6.511c.113-.11.223-.223.223-.332s.11-.219.219-.332c.113.113.113.223.113.332s.11.223.219.332l-.332.332c-.11-.113-.329-.223-.66-.332zm37.641-48.785H55.63c0-.11.11-.223.332-.223h.441c.219 0 .332.114.332.223z"></path></symbol><symbol id="e" overflow="visible"><path d="M55.406-50.992c-.11.219-.219.332-.328.332-.113 0-.223-.113-.332-.223-.11-.109-.223-.218-.332-.218L53.53-50a3.945 3.945 0 01-1.324.883l-.219-.332-.223-.328c-.109.328-.55.77-1.214 1.324-.66.55-.993.992-.993 1.211 0 .555-.332 1.215-.882 1.988a18.116 18.116 0 01-1.989 2.317c-.773.773-1.765 1.656-2.867 2.652-1.324 1.543-2.762 2.98-4.195 4.305s-2.871 2.535-4.305 3.75c.11 0 .219 0 .332.113-.113.11-.223.11-.332.11-.11 0-.11 0-.11.109h-.222c-.11 0-.332.11-.66.441-.332.332-.774.664-1.215 1.106-.441.441-.883.882-1.324 1.21-.441.333-.774.555-.883.665-.773.664-1.547 1.324-2.43 1.988-.882.66-1.765 1.21-2.539 1.765.442-1.437.992-2.87 1.657-4.195s1.214-2.539 1.765-3.531c.55-.996.992-1.879 1.434-2.54.441-.663.664-1.105.773-1.323a6.28 6.28 0 001.324-1.989c.332-.773.664-1.543.883-2.425.223-.883.332-1.657.442-2.32.113-.66.113-1.102.113-1.325l.328-1.984c.113-.664.113-1.328.113-1.989 0-.992-.113-1.765-.332-2.316-.222-.555-.441-.996-.664-1.328-.219-.328-.441-.55-.55-.66-.11-.11-.11-.11 0-.11h-.11c-.555-.441-1.106-1.105-1.547-2.097a5.658 5.658 0 00-1.875-2.32l-.883-.442c-.55-.328-1.215-.66-1.879-1.102-.66-.441-1.324-.882-1.984-1.214-.664-.332-.992-.551-.992-.66a1.832 1.832 0 00-1.328-.555c-.551 0-.992-.11-1.434-.22a6.362 6.362 0 00-2.207 2.317c-.55.993-.992 1.547-1.215 1.657-.218.109-.441.55-.66 1.214-.223.66-.441 1.434-.664 2.207a56.341 56.341 0 01-.66 2.207c-.223.664-.332 1.106-.332 1.215-2.871 6.402-5.41 12.473-7.617 18.211-2.207 5.738-4.196 10.816-5.848 15.23C.332-12.692-.992-9.05-1.875-6.294c-.883 2.762-1.438 4.418-1.657 4.969A169.079 169.079 0 01-5.188 2.87c-.55 1.324-1.105 2.758-1.547 4.192-.55 1.547-.882 2.652-1.101 3.312-.223.664-.332 1.106-.442 1.324-.109.223-.109.442-.109.551v.996c0 .11 0 .219.11.328l.218.442h-.11c.333.222.552.445.665.554.11.11.219.332.328.551.113.223.332.442.664.551.332.113.773.332 1.434.555.441.11.773.441.996.882.882 0 1.543-.113 1.984-.44.441-.333.774-.665.992-1.106.223-.442.442-.774.555-1.102.11-.332.328-.445.66-.445h.664c.551-1.102.992-2.207 1.215-3.418.219-1.215.66-2.32 1.324-3.422 0-.223.219-.442.551-.664.332-.219.773-.442 1.215-.66.441-.223.883-.442 1.324-.665.441-.218.66-.44.773-.664.66-.109 1.102-.441 1.325-.992.218-.55.55-.992.992-1.433l.11.218a25.13 25.13 0 002.32-2.648c.66-.883.992-1.324 1.101-1.434 1.766-1.433 3.203-3.422 4.305-5.96 1.105-2.54 2.43-5.52 4.086-8.829a5.28 5.28 0 01.328-.773c.113-.223.222-.55.332-.883.11.11.222.219.332.332h-.223c0 .328.113.77.442 1.324.113.329.222.551.332.77v.223c0 .109.109.441.332.882.222.442.55.993.882 1.657.332.66.665 1.324.993 1.984.332.664.554 1.215.664 1.656A116.207 116.207 0 0129.25.222c.882 2.867 1.656 5.406 2.207 7.613.55 2.207.992 4.086 1.324 5.629l.773 3.863c.11.332.219.664.332.992.11.332.328.555.66.555s.551-.223.665-.555c.109-.328.218-.77.218-1.21 0-1.438-.11-2.54-.332-3.422a32.284 32.284 0 00-.66-2.32 12.88 12.88 0 00-.664-1.653c-.219-.445-.328-.996-.441-1.547-.551-1.875-1.102-3.863-1.657-5.852a63.345 63.345 0 01-1.324-5.847c-.883-3.531-1.543-6.184-1.984-7.95-.442-1.765-.774-3.09-.996-4.081-.219-.993-.442-1.766-.66-2.317a71.38 71.38 0 00-.993-2.32c.328-.332.77-.66 1.211-.992.442-.332.883-.664 1.328-.883.442-.223.77-.442.993-.55l.332-.114c.55-.328 1.324-.774 2.207-1.324.882-.551 1.324-.993 1.324-1.325h.219c.222 0 .664-.332 1.437-.882.77-.551 1.21-1.102 1.324-1.657v.442c.11-.328.219-.551.328-.66 0 .109 0 .109.114.109h.218c0-.332.223-.55.664-.664.442-.11.66-.328.66-.77 0-.113 0-.222-.109-.332l.332.332c0-.113.219-.441.66-.996.442-.55.996-1.101 1.547-1.652a14.1 14.1 0 011.543-1.328c.446-.328.664-.441.555-.328.773-1.106 1.324-1.766 1.656-1.988.328-.22.551-.442.77-.551.222-.11.441-.332.773-.664.332-.328.883-.993 1.766-2.098 0-.441.222-.883.554-1.434a7.01 7.01 0 011.102-1.433c.441-.442.773-.774 1.106-.996.328-.22.441-.328.328-.22 1.437-2.097 2.32-3.64 2.761-4.636.442-.992.66-1.543.66-1.765 0-.332-.218-.551-.66-.66z"></path></symbol><symbol id="f" overflow="visible"><path d="M46.688-35.098c-1.656-.223-2.758-.332-3.309-.441-.554-.114-.996-.223-1.328-.442-.328-.222-.883-.441-1.543-.664-.664-.219-1.875-.55-3.754-.992-2.98-.774-5.078-1.879-6.18-3.313-1.105-1.433-1.655-3.312-1.655-5.628 0-1.547.44-2.872 1.214-4.082.774-1.215 1.657-2.211 2.649-2.981.992-.773 1.875-1.324 2.648-1.656l1.106-.55c.77-.333 1.543-.665 2.425-1.106.883-.442 1.766-.883 2.649-1.215.887-.332 1.77-.66 2.539-.992.773-.332 1.437-.442 1.988-.442h2.871c.551 0 .77-.223.77-.55 0-.114-.219-.333-.551-.555-.332-.22-.55-.442-.66-.66-.223.218-.664.44-1.324.55-.664.11-1.328.223-2.098.223h-3.313c-1.546.11-3.199.328-5.078.66-1.875.332-3.422.883-4.636 1.547-2.426 1.324-4.414 2.98-5.957 4.965-1.547 1.988-2.54 3.754-2.98 5.187.109.442.109.883.109 1.325s0 .882.109 1.324v1.324c0 1.324.441 2.539 1.324 3.535.883.992 1.766 1.875 2.762 2.649.11 0 .11.109 0 .218-.113.11 0 .223.328.223.113.11.332.332.773.66.223.113.442.223.555.332h-.332c.332.11.66.223 1.102.332 0 .11-.11.11-.328.11.109.332.328.55.66.55s.441.223.441.555h.223l.11-.113c.218.554.773.883 1.655 1.105.883.219 1.325.442 1.325.551 0 .11.109.223.44.223s.661.218 1.103.55c.441.332.773.774 1.105 1.325s.441 1.433.441 2.648c0 .55-.222 1.438-.664 2.648-.441 1.215-1.101 2.649-2.093 4.305-.996 1.656-2.32 3.422-3.977 5.41a52.571 52.571 0 01-6.07 6.18 40.266 40.266 0 01-5.63 3.645 49.906 49.906 0 00-5.847 3.64c-.332.11-.555.223-.664.223-2.098 0-3.863-.774-5.297-2.211-1.433-1.434-2.207-3.09-2.207-4.965v-6.18c0-.441-.113-.996-.441-1.765-.223.219-.555.441-.883.66-.332.223-.664.664-.996 1.215-.328.55-.66 1.433-.883 2.539-.219 1.102-.328 2.758-.328 4.855 0 1.766.219 3.422.55 4.97C1.99-2.099 2.65-.665 3.642.663c.996 1.324 2.43 2.426 4.305 3.418 1.879.996 4.418 1.77 7.508 2.32.332.11.66.11.992.11.332 0 .664 0 .992.109h1.215c.222 0 .441 0 .664.113.219.11.441.11.66.11.332-.11.664-.11 1.105-.11.442 0 .774 0 1.102-.113h1.105c.223 0 .551-.11 1.106-.219.55-.11 1.102-.222 1.652-.441.555-.223.996-.442 1.438-.664l.66-.219c1.766-.883 3.09-1.547 3.973-2.098.886-.55 1.547-.992 1.988-1.324.441-.332.773-.55.883-.664.11-.11.332-.219.55-.328 2.43-.996 4.419-2.211 5.852-3.645 1.434-1.433 2.871-3.53 4.195-6.289.11-.222.22-.445.442-.664.219-.222.328-.441.328-.773v-.332c.223-.11.441-.328.664-.66.223-.332.332-.442.332-.332 0-.11-.11-.22-.332-.442.441-.219.774-.55 1.106-1.101.328-.555.66-1.106.992-1.657.332-.554.55-1.105.66-1.656.113-.55.223-.883.332-.992.664-.883 1.105-1.988 1.324-3.422.223-1.437.332-2.539.332-3.422 0-1.879-.332-3.422-.992-4.746-.664-1.324-1.437-2.43-2.207-3.203-.883-.992-1.879-1.766-2.98-2.426z"></path></symbol><symbol id="g" overflow="visible"><path d="M27.043-52.539c0 .11-.113.332-.223.664a77.165 77.165 0 00-3.308 6.844 320.385 320.385 0 01-3.645 8.168c-.11.328-.55 1.101-1.215 2.316-.66 1.215-1.433 2.758-2.316 4.524-.883 1.765-1.766 3.754-2.648 5.851s-1.657 4.196-2.32 6.293a31.686 31.686 0 00-1.653 4.524c-.445 1.547-.996 3.09-1.547 4.527-.332.77-.664 1.543-.992 2.316L6.07-4.195c-.332.773-.66 1.547-.882 2.207-.22.664-.332 1.215-.332 1.656 0 .773.332 1.437.996 1.988.66.551 1.433.992 2.316 1.324.883.332 1.766.551 2.648.774.883.219 1.434.328 1.766.441.11 0 .223 0 .442-.113.222-.11.332-.11.44-.11h.774c.332 0 .551.11.774.442.219-.11.441-.219.773-.332.328-.11.442-.328.442-.66.109.11.218.11.328.11.113-.22.113-.442.113-.774 0-.328.11-.442.328-.442.223 0 .332.114.332.332 0 .223 0 .332.11.332.113 0 .222-.109.332-.332.109-.218.222-.332.332-.441l.218.664c0-.113 0-.113.114-.113.11 0 .218 0 .328-.11 0 .223-.11.442-.219.664-.11.22-.223.442-.223.77v.441h.223c.11 0 .219-.109.332-.328.11-.222.219-.554.441-1.105.22-.551.442-1.324.774-2.426.11-.332.219-.555.219-.664l.222-.883c.11-.441.328-1.105.66-1.988.333-.883.883-2.207 1.657-3.863.11-.442.441-.993.883-1.653.44-.664.882-1.328 1.324-2.097.441-.774.883-1.547 1.215-2.32.332-.77.55-1.434.55-2.098v-.22c.223-.109.442-.331.551-.663.113-.328.223-.551.223-.66 0-.11 0-.223-.11-.332.551-.774.883-1.434.993-2.098.109-.66.332-1.324.664-1.875.328-.332.55-.774.66-1.324.55-1.766 1.433-3.754 2.648-5.961 1.215-2.207 2.207-4.082 2.98-5.739.11-.441.442-1.105.883-1.988.442-.883.665-1.433.665-1.765v-.223c.882-.883 1.543-1.985 1.984-3.2a26.606 26.606 0 011.656-3.64c.11-.223.223-.555.442-.883.222-.332.44-.773.664-1.215.218-.44.441-.882.66-1.214.222-.332.332-.551.441-.664l.332-.66c.223-.442.442-.883.774-1.434.332-.555.55-.996.773-1.438.219-.441.328-.66.441-.66-.332 0-.554-.113-.554-.332 0-.223.222-.332.554-.441-.222-.11-.332-.223-.332-.332 0-.332.11-.551.332-.551.22 0 .442-.11.551-.223h.219c.664-.11 1.438-.328 2.32-.55.883-.22 1.543-.333 2.098-.333h1.101c.11 0 .333.114.665.223a6.71 6.71 0 011.656-.223c-.113 0 0 0 .441-.109.442-.11.883-.219 1.324-.332.442-.11.883-.328 1.325-.55.441-.223.66-.442.66-.774-.219-.219-.66-.332-1.324-.442-.66-.109-1.434-.109-2.207-.109l-2.317-.11c-.773 0-1.324 0-1.656-.113-.332 0-1.324-.218-2.871-.55-1.543-.332-3.531-.551-5.848-.551-.554-.332-.996-.664-1.324-.992-.773-.555-1.215-1.106-1.215-1.657-.11-.113-.222-.113-.222 0 0 .11 0 .22-.11.329l-.219-.22c-.113-.109-.664-.44-1.77-1.105-1.1-.66-2.206-.992-3.417-.992-.332 0-.664.11-.996.442l-.774.773c0 .55-.109.992-.441 1.324-.328.332-.66.664-.992.992 0 .114-.883.223-2.649.332l-5.96.551c-2.208.223-4.305.332-6.29.442-1.988.113-3.203.222-3.644.332h-.66c-.664.109-1.328.222-1.88.332-1.1.218-2.097.332-3.089.332h-.55l-.997.328c-.219.113-.441.222-.66.222-.223 0-.332.11-.441.22-.442.44-.664.773-.664.995 0 .219-.11.551-.22.883l1.325 1.102c.441.332 1.102.554 1.875.554.332 0 .664 0 .996-.113.328-.11.66-.11.992-.11H9.27c.332 0 .773 0 1.328-.109.55-.109 1.101-.222 1.765-.332.66-.11 1.211-.218 1.766-.332.55-.11.883-.11.992-.11h2.207c.774 0 1.547-.108 2.32-.218.77-.113 1.653-.223 2.649-.223h.66c0-.109 0-.109.11-.109l.222.11a1.887 1.887 0 011.106-.333h.77c.331 0 .773 0 1.214-.109s.883-.219 1.324-.332c0 .332-.219.996-.773 1.879-.551.883-.993 1.543-1.325 1.875.114 0 .223 0 .332.11z"></path></symbol><symbol id="h" overflow="visible"><path d="M41.832-11.809c.11-.441.219-.773.219-.883v-1.105c0-.219.113-.551.332-.883.222-.332.332-.664.332-.992 0-2.54-.332-5.188-.883-7.84-.55-2.648-.883-5.188-.883-7.613 0-.332-.11-.551-.332-.664-.219-.11-.332-.22-.332-.329 0-.222.223-.441.774-.664.55-.222.882-.441 1.105-.55 1.875-.883 3.531-1.547 4.965-1.989 1.437-.441 2.648-1.101 3.754-1.875.773-.554 1.765-1.215 3.09-2.097 1.324-.883 2.761-2.207 4.304-4.086.11-.11.442-.328.992-.77.555-.441 1.106-.996 1.657-1.656.554-.664 1.105-1.438 1.547-2.32s.66-1.766.66-2.758c0-.442-.11-.774-.219-1.106-.11-.328-.223-.66-.223-.992v-.219c0-1.765-.77-3.203-2.316-4.195-1.547-.992-3.422-1.765-5.52-2.43a32.283 32.283 0 00-6.62-1.324 219.128 219.128 0 01-6.184-.66c-.219 0-.328-.113-.328-.332l-.114-.773c0-.22-.11-.442-.218-.66-.11-.223-.223-.333-.442-.333h-.223c-.328 0-.769-.222-1.324-.664-.55-.441-.992-.66-1.324-.66-.11-.11-.441-.222-.883-.441-.441-.223-.883-.442-1.324-.664-.441-.219-.992-.442-1.543-.551-.555-.11-.883-.223-1.105-.223-.11 0-.551.114-1.325.332-.773.223-1.433.774-1.988 1.547-.11.11-.441.883-.992 2.207-.55 1.324-1.215 2.98-2.098 4.965-.883 1.988-1.875 4.086-2.867 6.293a39.539 39.539 0 01-3.203 5.738c-.11.114-.442.664-.992 1.547-.551.883-1.324 1.985-2.207 3.422-.883 1.434-1.766 2.98-2.762 4.637-.992 1.652-1.875 3.199-2.648 4.746-.11.11-.22.441-.332.883l-.329 1.324a4.056 4.056 0 01-.554 1.21c-.219.333-.442.555-.66.665v.223c0 .44-.332 1.324-.996 2.757-.66 1.434-1.543 3.09-2.536 5.078-.996 1.985-1.988 4.082-3.093 6.403a159.737 159.737 0 00-2.977 6.62C.55-6.18.332-5.628 0-4.968A39.311 39.311 0 01-1.106-2.87c-.441.773-.77 1.546-1.101 2.32C-2.54.222-2.65.882-2.65 1.433c0 .332.11.774.22 1.215.112.441.44.664.882.664h.113c.328 0 .551.11.77.219.222.11.441.222.773.332-.11.11-.11.219-.11.332 0 .11-.109.219-.222.219L0 4.636c.222.22.55.442.883.66.332.223.773.442 1.324.665.55.218 1.105.332 1.656.332.11 0 .219 0 .441-.114.22-.11.332-.11.442-.11s.222.11.332.224c.11.109.219.218.332.218h.66c.11 0 .223 0 .223.11 0 .113 0 .113.11.113s.218 0 .44-.113c.22-.11.332-.11.442-.11.332 0 .66.11.992.223l.992.328c.114 0 .446-.219.887-.66s.77-.883.992-1.324l.219.441c0-.55.223-.996.773-1.324.223.219.332.328.442.328.441 0 .883-.441 1.215-1.324.332-.883.773-1.543 1.214-1.875 0-.883.442-1.656 1.325-2.43.882-.77 1.656-1.984 2.316-3.75.332-.555.664-1.105.996-1.656.328-.55.77-1.434 1.324-2.648.551-1.215 1.324-2.98 2.317-5.188.992-2.207 2.316-5.3 3.972-9.164.11-.219.223-.66.442-1.324.222-.66.441-1.324.664-2.094.219-.773.55-1.547.992-2.32s.883-1.434 1.434-1.985l.113.551v.332c0 .55-.113 1.102-.332 1.652a4.411 4.411 0 00-.332 1.657c0 .882 0 1.765.11 2.648.112.883.222 1.77.331 2.652 0 .883.11 1.985.332 3.309.219 1.324.442 2.871.774 4.527.328 1.656.55 3.422.77 5.297.222 1.875.331 3.64.331 5.41V.11c0 .664 0 1.324.114 1.988.109.66.218 1.324.441 1.875.219.551.66.883 1.21.883h.442c.332 0 .555.113.774.223.222.109.441.218.664.218.219-.109.441-.218.66-.328.223-.113.441-.222.664-.222.992-.223 1.656-.664 1.984-1.434.332-.773.664-1.215.996-1.324l.329-.332v-.332c0-.332 0-.66.113-.992.11-.332.11-.664.11-.997v-3.75a98.391 98.391 0 00-.333-2.207c-.11-.665-.219-1.325-.219-1.989 0-.332 0-.55.11-.66 0-.113-.11-.223-.223-.332zM30.793-31.457v-.11c0-.44.332-.882.883-1.324.555-.441.883-1.105.883-2.097l-.11-.223c0-.11.11-.219.223-.219.11 0 .219-.11.332-.222.55-1.325 1.102-2.649 1.766-3.864.66-1.21 1.324-2.535 2.093-3.972l-.11-.22c0-.112 0-.222.11-.331.555-1.434 1.106-2.649 1.547-3.645.442-.992.992-2.207 1.547-3.64 0-.11 0-.442.11-1.106.109-.66.218-1.324.44-2.094.22-.773.442-1.437.661-2.097.223-.664.555-.996.996-.996.55.113 1.102.222 1.656.222h1.653a76.39 76.39 0 014.968 1.325 18.8 18.8 0 013.641 1.546c.996.551 1.766 1.325 2.207 2.207.445.883.664 2.098.664 3.532a5.531 5.531 0 01-.992 2.648c-.555.773-1.324 1.547-2.207 2.316a35.36 35.36 0 01-2.98 2.32c-1.106.774-2.208 1.657-3.313 2.54-2.758 1.875-4.856 3.199-6.293 3.973-1.434.773-2.648 1.324-3.64 1.656-.993.328-1.989.55-2.872.66-.883.113-2.207.441-3.863.996z"></path></symbol><symbol id="i" overflow="visible"><path d="M40.285-26.602c.113-.11.223-.219.332-.441.11-.22.223-.329.332-.442 0 .113 0 .223.11.332.109-.11.222-.219.331-.332-.109-.11-.222-.219-.332-.328a13.31 13.31 0 00-.332-.332l.664-.332v.664c.22 0 .332-.113.332-.445v-.66c0-.11 0-.11.11-.11h.332c.219 0 .55-.113.992-.441l1.324-.996c.442-.328.883-.66 1.325-.992.44-.333.773-.551.992-.66.773-.333 1.547-.887 2.32-1.548a23.123 23.123 0 002.316-2.316c.774-.883 1.547-1.77 2.32-2.652.77-.883 1.434-1.653 2.095-2.317.44-.773.886-1.433 1.214-1.875.332-.441.664-.882.883-1.214.223-.332.442-.664.664-.993.219-.332.442-.773.66-1.324.332-.664.883-1.547 1.657-2.652.773-1.102 1.105-2.094 1.105-2.867-.11 0-.223-.114-.223-.442 0-.113.114-.332.332-.554.223-.22.332-.442.332-.77-.332-.332-.441-.555-.441-.664v-.883h.441c-.109-.332-.222-.66-.222-.883 0-.218-.11-.441-.219-.773 0-.992-.223-1.875-.55-2.648a6.27 6.27 0 00-1.329-1.989c-.55-.55-1.101-1.101-1.652-1.543-.555-.441-1.106-.883-1.547-1.324.223-.223.332-.332.332-.441-.55-.774-1.438-1.438-2.54-1.989-1.105-.55-2.316-.773-3.53-.773h-.664c-.332 0-.66-.11-.883-.442-.219-.328-.66-.44-1.215-.44-.11 0-.66.222-1.543.663-.883.442-1.879.883-2.871 1.215.11-.113 0 0-.332.328-.328.332-.77.664-1.324.996-.551.332-1.102.66-1.657.992-.55.332-.992.442-1.324.442-.11 0-.55.332-1.21 1.105-.665.77-1.657 1.543-2.872 2.317-.441.332-1.324 1.105-2.648 2.316-1.324 1.215-2.871 2.762-4.637 4.637-1.765 1.879-3.64 4.086-5.629 6.625-1.988 2.535-3.863 5.297-5.738 8.164-.555.773-1.215 1.77-1.988 2.87-.774 1.106-1.547 2.208-2.207 3.313a108.015 108.015 0 00-1.875 3.2c-.555.992-.774 1.879-.774 2.539a80.1 80.1 0 00-1.656 4.527c-.441 1.324-.883 2.535-1.434 3.64a14.056 14.056 0 01-1.988 2.981c-.773.883-1.988 1.656-3.531 2.43v-.113c-.11.113-.223.222-.223.332 0 .109-.11.222-.218.332h1.433l-.883.882c-.218.22-.55.442-.882.66.55 0 .882 0 .992.114.113.11.332.11.554.11l2.317-.333v.442c0 1.656-.223 3.422-.664 5.297-.442 1.878-.77 3.644-.883 5.3 0 .66.113 1.215.441 1.657.332.44.664.882 1.106 1.324.441.441.883.883 1.324 1.21.441.333.664.665.773.997.551.992 1.215 1.984 2.098 2.867.883.883 1.875 1.547 3.09 2.098 1.215.554 2.426.996 3.64 1.324 1.215.332 2.43.441 3.645.441h1.434c.55 0 .992-.11 1.324-.328.664-.332 1.215-.664 1.547-.996.332-.328.66-.66.992-.992l.992-.992c.332-.332.774-.555 1.438-.774h-.223c-.11 0 .223 0 .883-.11.664-.112 1.547-.222 2.539-.44.992-.223 1.988-.442 2.98-.774.993-.332 1.766-.664 2.317-1.106.113.114.222.114.332.114l.332-.332.11.11c.109-.11.773-.333 1.878-.774 1.102-.442 2.094-.883 3.09-1.434-.113.11 0 .11.441 0s.883-.332 1.434-.664c.55-.328 1.105-.66 1.656-1.102.55-.441.883-.992 1.102-1.547.113-.218.441-.55.996-.882.55-.332 1.101-.774 1.656-1.215.55-.442 1.102-.992 1.652-1.543.555-.55.774-1.106.774-1.656v-.664c-.11.113-.332.113-.66.113h-.332c-.332 0-.551.11-.551.328 0 .223-.223.555-.664.996-2.758 2.098-5.961 4.082-9.602 5.848-3.644 1.765-8.058 2.98-13.246 3.644-2.539 0-4.195-.222-4.965-.664-.773-.441-1.214-1.324-1.214-2.758v-2.429c0-.66.109-1.324.441-1.985.332-.664.66-1.214.992-1.77-.11.114.11-.109.55-.769.442-.664.665-1.324.665-2.097a14.18 14.18 0 001.434-2.098c.332-.55.664-1.215.996-1.875a4.252 4.252 0 00.441-1.879l-.113-.219c0-.11.222-.332.664-.664.441-.332.66-.66.66-.992 0-.11-.11-.223-.219-.332.219-.219.332-.441.332-.55v-.223l.442-.66v-.11c0-.223.218-.441.66-.555l-.332-.328.332-.332.332-.332c-.11.332-.223.664-.332.883-.11.223-.219.441-.442.664.11-.113.223-.223.332-.332l.333-.332v.883l.44-.66c.11-.223.22-.442.22-.774v-.11c.222-.222.441-.445.554-.663.11-.223.328-.442.551-.551-.332.219-.11.219.66-.113.774-.328 1.657-.77 2.762-1.325a79.336 79.336 0 003.09-1.652c.992-.555 1.433-.887 1.433-.996s0-.11-.109-.11c0-.109.11-.222.441-.331.332-.11.551-.22.665-.332-.114 0-.114 0-.114.113 0 .11-.11.219-.219.328.22-.11.333-.219.333-.328v-.555c0-.11.109-.219.218-.219.223 0 .332.11.332.333.11 0 .219-.114.332-.442zM21.633-10.043v.883c0 .441-.219.66-.55.66-.223 0-.333 0-.442-.11-.11.11-.11-.109 0-.55s.332-.664.66-.664c.113 0 .223 0 .332.11-.11-.442-.219-.77-.219-.993.11-.11.219-.332.328-.55.114-.224.223-.333.332-.333s.223 0 .332.11c-.222.113-.332.44-.332.996 0 .55-.218.882-.55.882zm10.926-15.562c1.77-2.207 3.754-4.969 5.96-8.39s4.747-6.731 7.509-9.934c.11 0 .328-.219.66-.66s.773-.996 1.215-1.547.882-1.215 1.324-1.875c.441-.664.773-1.215.883-1.656l-.11-.11c.11-.113.219-.332.332-.555.11-.218.22-.328.328-.328-.109.11-.109.328-.109.551.11 0 .223-.11.332-.441.11-.332.219-.551.332-.664-.113-.328-.223-.66-.332-1.102h.66v.66l.114.113c.109-.113.332-.445.66-.886.332-.442.664-.883 1.105-1.324s.992-.77 1.766-1.102 1.656-.441 2.648-.441c.332.55.551 1.101.664 1.765.11.66.11 1.324.11 1.875 0 .332-.11.774-.223 1.324-.55 2.43-1.324 4.418-2.207 5.852a27.253 27.253 0 01-2.867 3.863 27.235 27.235 0 01-3.203 2.98c-1.102.884-2.098 1.985-3.09 3.2-1.875 1.879-4.195 3.644-7.063 5.297-2.87 1.656-5.41 3.203-7.726 4.527zM20.09-5.851c-.555.773-.883 1.438-.996 1.988-.11.551-.442 1.106-.992 1.657a.848.848 0 01-.223-.551c0-.332.113-.883.441-1.656.332-.774.555-1.215.774-1.438h.664zm2.867-8.496c.223.219.332.332.332.441 0 .332-.11.66-.441.883-.332.219-.442.55-.442.883v.11c0 .109-.222.331-.664.663l-.109-.113.223-.328a5.78 5.78 0 01.441-.773c.219-.332.328-.665.441-.993.11-.332.22-.554.22-.664v-.222zm33.004-46.801c-.441-.11-.883-.219-1.215-.219-.332 0-.55-.113-.55-.441 0-.223.109-.442.328-.664.222.11.554.332.883.664.332.328.554.55.554.66zM19.094-6.511c.113-.11.223-.223.223-.332s.11-.219.219-.332c.113.113.113.223.113.332s.11.223.219.332l-.332.332c-.11-.113-.329-.223-.66-.332zm37.641-48.785H55.63c0-.11.11-.223.332-.223h.441c.219 0 .332.114.332.223z"></path></symbol><symbol id="j" overflow="visible"><path d="M55.406-50.992c-.11.219-.219.332-.328.332-.113 0-.223-.113-.332-.223-.11-.109-.223-.218-.332-.218L53.53-50a3.945 3.945 0 01-1.324.883l-.219-.332-.223-.328c-.109.328-.55.77-1.214 1.324-.66.55-.993.992-.993 1.211 0 .555-.332 1.215-.882 1.988a18.116 18.116 0 01-1.989 2.317c-.773.773-1.765 1.656-2.867 2.652-1.324 1.543-2.762 2.98-4.195 4.305s-2.871 2.535-4.305 3.75c.11 0 .219 0 .332.113-.113.11-.223.11-.332.11-.11 0-.11 0-.11.109h-.222c-.11 0-.332.11-.66.441-.332.332-.774.664-1.215 1.106-.441.441-.883.882-1.324 1.21-.441.333-.774.555-.883.665-.773.664-1.547 1.324-2.43 1.988-.882.66-1.765 1.21-2.539 1.765.442-1.437.992-2.87 1.657-4.195s1.214-2.539 1.765-3.531c.55-.996.992-1.879 1.434-2.54.441-.663.664-1.105.773-1.323a6.28 6.28 0 001.324-1.989c.332-.773.664-1.543.883-2.425.223-.883.332-1.657.442-2.32.113-.66.113-1.102.113-1.325l.328-1.984c.113-.664.113-1.328.113-1.989 0-.992-.113-1.765-.332-2.316-.222-.555-.441-.996-.664-1.328-.219-.328-.441-.55-.55-.66-.11-.11-.11-.11 0-.11h-.11c-.555-.441-1.106-1.105-1.547-2.097a5.658 5.658 0 00-1.875-2.32l-.883-.442c-.55-.328-1.215-.66-1.879-1.102-.66-.441-1.324-.882-1.984-1.214-.664-.332-.992-.551-.992-.66a1.832 1.832 0 00-1.328-.555c-.551 0-.992-.11-1.434-.22a6.362 6.362 0 00-2.207 2.317c-.55.993-.992 1.547-1.215 1.657-.218.109-.441.55-.66 1.214-.223.66-.441 1.434-.664 2.207a56.341 56.341 0 01-.66 2.207c-.223.664-.332 1.106-.332 1.215-2.871 6.402-5.41 12.473-7.617 18.211-2.207 5.738-4.196 10.816-5.848 15.23C.332-12.692-.992-9.05-1.875-6.294c-.883 2.762-1.438 4.418-1.657 4.969A169.079 169.079 0 01-5.188 2.87c-.55 1.324-1.105 2.758-1.547 4.192-.55 1.547-.882 2.652-1.101 3.312-.223.664-.332 1.106-.442 1.324-.109.223-.109.442-.109.551v.996c0 .11 0 .219.11.328l.218.442h-.11c.333.222.552.445.665.554.11.11.219.332.328.551.113.223.332.442.664.551.332.113.773.332 1.434.555.441.11.773.441.996.882.882 0 1.543-.113 1.984-.44.441-.333.774-.665.992-1.106.223-.442.442-.774.555-1.102.11-.332.328-.445.66-.445h.664c.551-1.102.992-2.207 1.215-3.418.219-1.215.66-2.32 1.324-3.422 0-.223.219-.442.551-.664.332-.219.773-.442 1.215-.66.441-.223.883-.442 1.324-.665.441-.218.66-.44.773-.664.66-.109 1.102-.441 1.325-.992.218-.55.55-.992.992-1.433l.11.218a25.13 25.13 0 002.32-2.648c.66-.883.992-1.324 1.101-1.434 1.766-1.433 3.203-3.422 4.305-5.96 1.105-2.54 2.43-5.52 4.086-8.829a5.28 5.28 0 01.328-.773c.113-.223.222-.55.332-.883.11.11.222.219.332.332h-.223c0 .328.113.77.442 1.324.113.329.222.551.332.77v.223c0 .109.109.441.332.882.222.442.55.993.882 1.657.332.66.665 1.324.993 1.984.332.664.554 1.215.664 1.656A116.207 116.207 0 0129.25.222c.882 2.867 1.656 5.406 2.207 7.613.55 2.207.992 4.086 1.324 5.629l.773 3.863c.11.332.219.664.332.992.11.332.328.555.66.555s.551-.223.665-.555c.109-.328.218-.77.218-1.21 0-1.438-.11-2.54-.332-3.422a32.284 32.284 0 00-.66-2.32 12.88 12.88 0 00-.664-1.653c-.219-.445-.328-.996-.441-1.547-.551-1.875-1.102-3.863-1.657-5.852a63.345 63.345 0 01-1.324-5.847c-.883-3.531-1.543-6.184-1.984-7.95-.442-1.765-.774-3.09-.996-4.081-.219-.993-.442-1.766-.66-2.317a71.38 71.38 0 00-.993-2.32c.328-.332.77-.66 1.211-.992.442-.332.883-.664 1.328-.883.442-.223.77-.442.993-.55l.332-.114c.55-.328 1.324-.774 2.207-1.324.882-.551 1.324-.993 1.324-1.325h.219c.222 0 .664-.332 1.437-.882.77-.551 1.21-1.102 1.324-1.657v.442c.11-.328.219-.551.328-.66 0 .109 0 .109.114.109h.218c0-.332.223-.55.664-.664.442-.11.66-.328.66-.77 0-.113 0-.222-.109-.332l.332.332c0-.113.219-.441.66-.996.442-.55.996-1.101 1.547-1.652a14.1 14.1 0 011.543-1.328c.446-.328.664-.441.555-.328.773-1.106 1.324-1.766 1.656-1.988.328-.22.551-.442.77-.551.222-.11.441-.332.773-.664.332-.328.883-.993 1.766-2.098 0-.441.222-.883.554-1.434a7.01 7.01 0 011.102-1.433c.441-.442.773-.774 1.106-.996.328-.22.441-.328.328-.22 1.437-2.097 2.32-3.64 2.761-4.636.442-.992.66-1.543.66-1.765 0-.332-.218-.551-.66-.66z"></path></symbol><symbol id="k" overflow="visible"><path d="M46.688-35.098c-1.656-.223-2.758-.332-3.309-.441-.554-.114-.996-.223-1.328-.442-.328-.222-.883-.441-1.543-.664-.664-.219-1.875-.55-3.754-.992-2.98-.774-5.078-1.879-6.18-3.313-1.105-1.433-1.655-3.312-1.655-5.628 0-1.547.44-2.872 1.214-4.082.774-1.215 1.657-2.211 2.649-2.981.992-.773 1.875-1.324 2.648-1.656l1.106-.55c.77-.333 1.543-.665 2.425-1.106.883-.442 1.766-.883 2.649-1.215.887-.332 1.77-.66 2.539-.992.773-.332 1.437-.442 1.988-.442h2.871c.551 0 .77-.223.77-.55 0-.114-.219-.333-.551-.555-.332-.22-.55-.442-.66-.66-.223.218-.664.44-1.324.55-.664.11-1.328.223-2.098.223h-3.313c-1.546.11-3.199.328-5.078.66-1.875.332-3.422.883-4.636 1.547-2.426 1.324-4.414 2.98-5.957 4.965-1.547 1.988-2.54 3.754-2.98 5.187.109.442.109.883.109 1.325s0 .882.109 1.324v1.324c0 1.324.441 2.539 1.324 3.535.883.992 1.766 1.875 2.762 2.649.11 0 .11.109 0 .218-.113.11 0 .223.328.223.113.11.332.332.773.66.223.113.442.223.555.332h-.332c.332.11.66.223 1.102.332 0 .11-.11.11-.328.11.109.332.328.55.66.55s.441.223.441.555h.223l.11-.113c.218.554.773.883 1.655 1.105.883.219 1.325.442 1.325.551 0 .11.109.223.44.223s.661.218 1.103.55c.441.332.773.774 1.105 1.325s.441 1.433.441 2.648c0 .55-.222 1.438-.664 2.648-.441 1.215-1.101 2.649-2.093 4.305-.996 1.656-2.32 3.422-3.977 5.41a52.571 52.571 0 01-6.07 6.18 40.266 40.266 0 01-5.63 3.645 49.906 49.906 0 00-5.847 3.64c-.332.11-.555.223-.664.223-2.098 0-3.863-.774-5.297-2.211-1.433-1.434-2.207-3.09-2.207-4.965v-6.18c0-.441-.113-.996-.441-1.765-.223.219-.555.441-.883.66-.332.223-.664.664-.996 1.215-.328.55-.66 1.433-.883 2.539-.219 1.102-.328 2.758-.328 4.855 0 1.766.219 3.422.55 4.97C1.99-2.099 2.65-.665 3.642.663c.996 1.324 2.43 2.426 4.305 3.418 1.879.996 4.418 1.77 7.508 2.32.332.11.66.11.992.11.332 0 .664 0 .992.109h1.215c.222 0 .441 0 .664.113.219.11.441.11.66.11.332-.11.664-.11 1.105-.11.442 0 .774 0 1.102-.113h1.105c.223 0 .551-.11 1.106-.219.55-.11 1.102-.222 1.652-.441.555-.223.996-.442 1.438-.664l.66-.219c1.766-.883 3.09-1.547 3.973-2.098.886-.55 1.547-.992 1.988-1.324.441-.332.773-.55.883-.664.11-.11.332-.219.55-.328 2.43-.996 4.419-2.211 5.852-3.645 1.434-1.433 2.871-3.53 4.195-6.289.11-.222.22-.445.442-.664.219-.222.328-.441.328-.773v-.332c.223-.11.441-.328.664-.66.223-.332.332-.442.332-.332 0-.11-.11-.22-.332-.442.441-.219.774-.55 1.106-1.101.328-.555.66-1.106.992-1.657.332-.554.55-1.105.66-1.656.113-.55.223-.883.332-.992.664-.883 1.105-1.988 1.324-3.422.223-1.437.332-2.539.332-3.422 0-1.879-.332-3.422-.992-4.746-.664-1.324-1.437-2.43-2.207-3.203-.883-.992-1.879-1.766-2.98-2.426z"></path></symbol><clipPath id="a"><path d="M.137 0h374.74v155.05H.137z"></path></clipPath></defs><g transform="translate(-508.965 86.235) scale(.35278)" clip-path="url(#a)"><path d="M289.48 121.55c-1.238-.766-2.281-1.758-3.36-2.723-1.3-1.16-2.886-2.129-4.66-2.625-1.242-.347-2 .39-1.609 1.524.168.5.473 1.043.89 1.367 1.41 1.113 2.5 2.496 3.723 3.762 1.051 1.09 2.426 1.652 3.778 2.203 1.406.57 2.218-.051 2.246-1.512.008-.82-.192-1.484-1.008-1.996zm-146 26.57c1.516.8 3.106 1.484 4.64 2.25.598.297 1.239.371 1.555-.164.805-1.371 1.766-.652 2.723-.305.621.227 1.2.516 1.695.953.262.239.61.223.914.02.356-.246.25-.555.051-.817-1.18-1.5-2.187-3.117-4.012-4.093a58.133 58.133 0 01-5.234-3.157c-2.383-1.636-2.871-1.53-3.762 1.168-.148.446-.27.903-.441 1.489-.145 1.254.754 2.062 1.871 2.656zm58.992-3.809c-.324-1.964-2.094-3.3-4.184-3.257-.734.015-1.3.207-1.601.867-.492 1.07-.992 2.14-1.438 3.226-.39.942-.293 1.825.5 2.586 1.672 1.614 3.563 2.989 5.434 4.39.324.243.683.485 1.121.415 1.844-.3 3.145.66 4.484 1.602.524.367 1.16.59 1.762.84.406.163.809.105 1.129-.223.738-.766.484-2.43-.473-2.957-1.71-.953-3.437-1.875-5.148-2.824-1.129-.63-2.129-1.329-1.473-2.63-.039-.788-.011-1.421-.113-2.035zm19.117-46.988c.102.559.227 1.07.695 1.45 1.903 1.55 3.813 3.074 6.575 2.87 1.316-.097 2.402.356 3.445 1.087 1.52 1.07 3.015 2.242 4.707 3.027 3.637 1.68 7.453 3.004 10.738 5.328.578.41 1.508 1.105 2.254.43.675-.614.37-1.64.304-2.453-.062-.766-.98-1-1.629-1.325-4.722-2.343-9.953-3.925-13.48-8.035-.05-.058-.148-.078-.21-.129-2.25-1.77-5.047-2.687-7.442-4.246-1.57-1.023-2.828-2.16-2.848-4.129-.004-.613-.207-1.234-.332-1.847-.105-.5-.406-.86-.964-.946-.575-.086-.914.266-1.235.64a2.685 2.685 0 00-.66 1.74c-.02 1.089-.004 2.183-.004 3.276.008 1.086-.117 2.172.086 3.262zm65.926-47.715c-.137-.058-.285-.18-.41-.16-.125.02-.324.168-.328.27-.012.3.234.36.476.246.117-.055.176-.23.262-.356zM39.705 103.92c.113.078.23.227.332.22.117-.009.3-.15.313-.247.039-.285-.184-.36-.415-.285-.105.031-.156.203-.23.312zm229.91-37.187c-.14.082-.406.153-.484.313-.125.238.082.45.34.43.195-.016.453-.145.546-.301.172-.27-.09-.367-.402-.442zm-39.039-51.582c-.48.028-.691.153-.664.422.004.094.254.254.344.23.21-.058.527-.175.574-.331.09-.297-.215-.32-.254-.32zm-83.781 2.426c-.3.102-.578.242-.527.598.011.074.254.18.37.156.333-.055.571-.25.528-.594-.008-.066-.238-.109-.371-.16zm-75.5 95.887c-.973.133-1.562.34-1.98 1.024 1.023.3 1.437-.196 1.98-1.024zM52.744 66.362a.525.525 0 00-.52-.39c-.257 0-.484.136-.476.39.012.36.305.5.648.469.27-.023.371-.223.348-.469zm216.41 10.848c-1.29-.137-1.887.113-2.406.961.922-.055 1.453-.387 2.406-.96zm-131.35-16.09c.352-.02.664-.152.703-.488.055-.492-.355-.625-.766-.625-.351.004-.57.25-.566.586.008.36.285.492.629.527zm-1.41-4.199c-.469-.008-.781.18-.817.645-.02.265.164.449.426.48.508.055.715-.273.805-.672.074-.305-.164-.39-.414-.453zm-52.621 48.305c.887-.043 1.226-.371 1.406-.953-.602.082-1.098.226-1.406.953zM121.6 47.585c-.11-.36-.403-.465-.75-.441-.356.027-.645.226-.594.566.05.32.352.52.727.457.328-.055.578-.234.617-.582zm-40.004-7.281c.027-.246-.063-.477-.324-.504-.582-.074-.868.332-1.067.746-.11.227.078.441.332.477.582.082.89-.239 1.059-.72zm57.469-1.61c-1.04.375-1.207.942-1.32 1.809.753-.504 1.246-.879 1.32-1.809zM50.64 100.21c-.606-.004-.852.356-1.14.606-.231.2-.473.488-.083.762a.531.531 0 00.668-.067c.34-.316.817-.582.555-1.3zm178.75-68.422c.402.016.722-.09.73-.457.012-.535-.355-.836-.902-.832-.39 0-.902.059-.86.567.051.547.598.636 1.032.722zm41.172-5.16c.52.813.82 1.336 1.652 1.012.102-.043.227-.281.192-.371-.25-.63-.86-.555-1.844-.64zm-127.09 65.29c-.54.105-.778.116-.985.202-.418.168-1.171.266-.851.848.289.523.863.156 1.234-.152.172-.145.262-.38.602-.899zm59.734-83.763c-.887.133-1.54.348-1.637 1.266-.004.078.223.262.324.254.825-.09 1.274-.528 1.313-1.52zM66.186 73.612c.847-.437 1.441-.918 1.332-1.863-.012-.11-.422-.277-.61-.242-1.07.199-.5 1.14-.816 1.695-.031.05.027.145.094.41zm232.15 1.09c-.828-.04-1.551.516-1.54 1.195.005.258.145.516.415.477.75-.094 1.492-.309 1.73-1.082.102-.332-.25-.531-.605-.59zm-122.19-41.691l-.344-.379c-.746.645-1.871.535-2.555 1.281-.132.145-.214.465-.136.633.144.32.523.402.812.195.762-.554 1.485-1.152 2.223-1.73zm-145.66 92.82c1.324-.078 2.258-1.21 1.992-2.41-.066-.301-.14-.633-.484-.754-.508-.184-.727.187-.942.516-.398.585-.82 1.156-1.172 1.765-.336.594 0 .852.606.883zm91.543-83.465c1.187.047 2.156-.613 2.07-1.465-.066-.668-.547-1.129-1.187-1.328-.594-.183-2.047 1.242-2.094 2.012-.047.84.668.71 1.21.781zm199.23 51.332c-.024-.79-1.364-1.828-2.313-1.82-.933.007-1.258.644-1.344 1.363-.082.668 1.223 1.66 2.079 1.559.718-.094 1.449-.301 1.578-1.102zm-292.23 27.25c.054-1.27-.649-2.156-1.7-2.156-1.246.004-2.14 1.082-2.218 2.668-.043.949.594 1.504 1.754 1.535 1.312.04 2.105-.71 2.164-2.047zm171.78-108.63c0-.379-.301-.648-.645-.855-1.316-.793-3.664.265-3.84 1.718-.144 1.176.868 2.407 1.832 2.23 1.243-.218 2.72-1.905 2.653-3.093zm32.125 13.992c-.7-.02-1.29-.082-1.645.492-.336.555-.191 1.059.266 1.469.832.738 1.727 1.406 2.523 2.172.782.746 1.348.316 1.84-.238.856-.97.606-2.301-.594-2.95-.773-.418-1.656-.66-2.39-.945zM231.5 57.072c-1.344-.133-2.023.395-2.113 1.656-.09 1.145.781 2.254 1.867 2.39 1.234.153 3.383-1.03 3.402-1.874.02-.942-1.53-2.008-3.156-2.172zM56.89 65.17c.922.093 2.012-.68 3.117-1.34.68-.414 1.403-.957.985-1.89-.39-.88-1.77-1.333-2.75-.884-1.2.551-2.258 1.286-2.871 2.477-.555 1.086-.243 1.621 1.52 1.637zm145.2-21.547c.106-1.418-1.644-2.93-3.074-2.676-.734.129-1.496.387-1.77 1.129-.257.699-.125 1.37.52 1.914.367.305.66.687.996 1.027.547.567 1.102 1.395 1.965 1.133.793-.238.965-1.191 1.262-1.91.09-.211.078-.461.101-.617zm92.523 29.55c-.172.372-.258.509-.3.653-.07.25.019.469.277.555.14.043.344.023.476-.043 1.184-.578 2.082-2.903 1.41-3.824-.91-1.25-2.18-2.118-3.683-2.653-.848-.3-1.41.207-1.938.719-.703.691.008 1.07.368 1.563.625.855 1.351 1.57 2.414 1.91.71.226 1.176.562.976 1.12zM139.623 22.07c1.54.402 2.653-.485 3.551-1.692.402-.547 1.055-1.164.512-1.89-.617-.828-1.582-1.153-2.63-.914-1.07.246-1.952.847-2.694 1.605-.645.668-1.97 1.176-1.614 2.152.363 1.02 1.727.567 2.875.739zm15.246 33.23c.051-1.536-1.277-3.106-2.687-3.172-1.368-.07-3.344 1.496-3.352 2.66-.004 1.168 1.746 2.45 3.461 2.523 1.352.059 2.543-.867 2.578-2.011zm127.87-6.813c.352-.054.856-.086 1.324-.215 1.313-.37 2.371-1.37 2.27-2.195-.149-1.172-1.219-1.582-2.14-2.082-.723-.387-1.442-.117-2.169.05-1.66.391-2.105.845-2.02 2.118.094 1.352 1.153 2.305 2.735 2.324zM71.18 78.588c.352-.035.867-.012 1.336-.148 1.2-.352 2.535-.727 2.738-2.086.227-1.492-1.156-1.899-2.285-2.387-1.816-.789-3.531.035-3.898 1.856-.305 1.504.578 2.75 2.11 2.765zm100.39-47.87c2.07-.009 3.801-1.102 3.723-2.349-.086-1.304-2.004-3.14-3.274-3.128-1.246.004-2.793 1.734-2.804 3.132-.012 1.453.887 2.352 2.355 2.344zm102.01 51.866c-1.98.008-3.973 1.508-3.89 2.93.074 1.281 1.64 2.945 2.765 2.937 2.313-.02 3.746-1.234 3.774-3.21.027-1.81-.825-2.66-2.649-2.657zM43.91 102.275c1.492.113 1.938-.16 3.13-1.644.921-1.149.91-1.309-.384-2.094a48.125 48.125 0 00-3.195-1.79c-1.117-.566-3.914 1.028-3.945 2.231-.004.211.12.47.27.63 1.226 1.304 2.655 2.32 4.124 2.667zm89.273-35.309c-.336-.418-.86-.297-1.34-.383-4.847-.855-9.797-1.16-14.258-3.625-3.797-2.101-7.644-4.054-10.305-7.453a13.982 13.982 0 01-2.21-4.133c-1.184-3.449-1.184-7.199-3.157-10.438-1.508-2.476-.468-5.132.059-7.53.687-3.106 1.41-6.266 2.66-9.259.363-.87.742-1.738 1.106-2.605.125-.297.207-.613-.059-.871-.363-.352-.773-.203-1.129.012-.273.168-.488.418-.75.609-2.508 1.813-4.957 3.668-7.203 5.777-3.668 3.438-7.137 6.97-8.297 11.922-.234.996-.883 1.813-1.039 2.856-.578 3.793-1 7.598-.32 11.39.992 5.532 3.125 10.493 8.41 13.782 1.656 1.031 3.41 1.898 5.023 3.015 4.754 3.301 10.102 4.485 15.984 3.602 2.977-.45 5.793-1.43 8.723-1.992 2.941-.567 5.238-2.192 7.656-3.649.324-.199.606-.546.445-1.027zm143.48 45.422c-.941.446-1.582.305-2.164-.023-2.969-1.692-6.105-3.09-9.055-4.82-4.078-2.387-7.66-5.383-11.53-8.02-3.755-2.559-7.782-4.727-11.61-7.164-2.464-1.563-4.968-3.125-7.277-4.883-1.437-1.094-3.062-1.855-4.516-2.902-3.73-2.664-7.421-5.371-11.473-7.637-2.777-1.558-5.898-1.402-8.828-2.14-.707-.176-1.187.355-1.437 1.035-.742 2-.457 4 .055 5.96.257.993.664 1.981.566 2.981-.215 2.332.797 4.273 2.098 6.09.558.785 1.027 1.406.375 2.297a.612.612 0 00-.07.453c.152.527 1.105 1.066.171 1.57-1.129.61-1.453-.562-1.836-1.09-2.289-3.148-4.715-6.246-5.914-9.96-.316-.97-.691-1.758-1.945-1.797-.711-.02-1.156-.399-1.629-.918-2.02-2.2-3.383-4.801-5.063-7.2-.347-.5-.335-1.054-.199-1.593.137-.528.25-1.114.574-1.54 1.68-2.226 1.075-4.367-.043-6.585-1.039-2.078-2.554-2.66-4.757-1.547a18.323 18.323 0 00-5.399 4.133c-1.304 1.457-2.77 2.691-4.535 3.62-1.238.65-2.363 1.454-3.473 2.282-1.5 1.113-3.136 2.015-4.851 2.848-4.82 2.324-9.512 4.855-13.56 8.304-1.124.965-2.487 1.567-3.796 2.239-1.91.98-3.742 2.074-5.18 3.625-1.55 1.671-3.695 2.656-5.34 4.226-.847.809-.875 1.266-.035 2.09 1 .977 2.274 1.55 3.364 2.387 1.93 1.492 3.703 3.105 5.187 5 1.148 1.464 2.61 2.566 4.23 3.582 3.247 2.03 6.739 3.695 9.739 6.11 1.238.991 2.121 2.194 3.094 3.312 3.164 3.632 7.136 6.27 11.3 8.718 1.196.703 2.34 1.485 3.5 2.239.481.312 1.11.617 1.184 1.164.215 1.55 1.375 2.414 2.528 3.273 1.187.895 1.683 2.063 1.855 3.43.13 1.023-.305 1.46-1.336 1.23-.32-.07-.71-.16-.898-.375-2.89-3.324-6.785-5.464-10.441-7.882-2.063-1.368-3.703-3.141-5.39-4.86-1.587-1.613-3.274-3.058-5.204-4.308-4.558-2.954-9.015-6.036-13.52-9.055-2.144-1.434-4.566-2.434-6.797-3.703-3.664-2.078-7.445-4.114-9.289-8.149-1.289-2.828-3.656-5.023-5.808-7.257-2.762-2.86-8.54-2.84-12.52-.672-2.098 1.144-4.11 2.394-5.993 3.816-3.11 2.356-6.191 4.738-9.68 6.602-.652.347-.902.613-.671 1.453.426 1.554 1.207 2.894 2.344 3.992 2.218 2.14 4.007 4.527 5.582 7.117a110.9 110.9 0 005.613 8.305c2.93 3.941 6.55 7.234 11.02 9.64.726.387 1.437.766 2.086 1.274.601.473.672.941.492 1.633-.2.777-.906.734-1.36.734-.972.004-1.898-.32-2.917.035-.465.16-.957-.37-1.372-.82-1.515-1.656-3.097-3.055-5.703-3.375-2.054-.254-3.84-1.613-5.367-3.035-2.07-1.926-4.672-2.887-7.426-3.406-2.043-.383-3.02-1.497-3.382-3.254-.25-1.227-.57-2.48-.536-3.711.055-2.383-.605-4.63-1.136-6.906-.036-.153-.133-.305-.121-.454.242-2.457-1.418-4.16-2.61-6.085-.539-.872-1.152-1.133-2-.895-3.136.898-6.238 1.723-8.695 4.113-1.762 1.711-3.629 3.54-6.523 3.828-1.93.192-3.387 1.582-5.051 2.43-2.336 1.191-4.614 2.488-6.906 3.758-1.754.965-3.637 1.562-5.657 1.703-1.293.094-2.527.441-3.484 1.168-2.758 2.098-5.969 3.371-9.176 4.582-6.293 2.379-11.94 5.836-17.676 9.125-3.043 1.738-5.824 3.883-8.832 5.707-3.375 2.04-7.09 3.41-10.645 5.078-1.86.871-3.793 1.61-5.41 2.844-2.008 1.527-4.305 1.48-6.648 1.328-.829-.055-1.403-.535-1.707-1.215-.348-.773.445-1.101.875-1.512 1.105-1.07 2.378-1.957 3.73-2.738 3.297-1.91 5.957-4.484 8.504-7.18.808-.859 1.148-1.714 1.156-3.07.008-2.02-.223-4.254.988-6.172.414-.652.567-1.484.336-2.035-.652-1.562.13-3.078-.086-4.625-.148-1.074.817-2 1.555-2.84.836-.957 1.953-1.746 1.79-3.203-.04-.351.304-.523.554-.726 2.398-1.946 3.867-4.414 4.637-7.282.367-1.37 1.039-2.574 1.847-3.793 1.36-2.05 2.137-4.406 2.887-6.722.316-.985.566-1.953 1.281-2.766.418-.473.695-.941.559-1.676-.137-.761.265-1.586.847-2.144.95-.91 1.34-1.973 1.75-3.176 1.489-4.363 4.5-7.906 7.473-11.441 1.527-1.82 3.531-3.312 4.352-5.621.168-.473.722-.625 1.062-.945.848-.797 1.551-1.586 1.977-2.809.703-2.02 1.86-4.04 4.238-4.941.55-.211 1.067-.45 1.254-1.047.512-1.645 1.996-2.418 3.356-3.297 3.285-2.121 6.472-4.332 8.925-7.36 1.004-1.234 2.207-2.332 3.395-3.425 3.367-3.114 6.785-6.18 10.152-9.297.648-.598 1.258-1.282 1.71-2.02 1.024-1.648 2.368-3.047 3.895-4.254 2.754-2.172 5.094-4.715 7.528-7.172.93-.937 2.12-1.5 3.171-2.257 2.829-2.055 5.915-3.723 9.028-5.36 2.46-1.297 5.191-1.57 7.886-2.031 4.637-.793 8.774-2.895 13.13-4.434 5.003-1.765 10.12-2.922 15.542-2.75 1.782.055 3.614-.414 5.375-.832 4.551-1.074 9.149-1.894 13.77-2.66 1.817-.3 3.832-.137 5.508-1.137.762-.453 1.453.297 2.16.114.61-.164 1.141-.66 1.422.394.082.309.547-.058.727-.289.726-.95 1.8-1.086 2.898-1.082 1.914.004 3.856-.008 5.696.524 4.128 1.191 8.3.996 12.5.535 1.367-.153 2.699.578 4.078.164.539 1.75 1.59.582 2.41.328.504-.16.988-.258 1.46-.125 3.141.894 6.43.312 9.571.82 5.152.832 10.41.66 15.52 1.7 2.773.562 5.422 1.515 8.145 2.23 6.593 1.742 12.805 4.422 18.828 7.367 7.054 3.453 14.172 6.813 21.188 10.348 6.332 3.192 12.145 7 17.77 11.145 1.425 1.055 2.996 1.953 4.554 2.836 4.38 2.484 8.02 5.77 11.664 9.102 2.801 2.558 5.442 5.238 8.043 7.968 2.008 2.11 3.739 4.395 4.531 7.176.192.66.692 1.047 1.086 1.535 2.903 3.567 6.672 6.325 10 9.493 1.309 1.246 2.395 2.605 3.137 4.183 1.082 2.309 2.434 4.442 4.258 6.297.754.774 1.305 1.656 1.375 2.695.32 4.844 2.785 8.715 6.012 12.324 2.898 3.247 4.359 7.16 5.14 11.27.668 3.489 2.219 6.688 3.508 9.957.582 1.48 1.46 2.91 2.148 4.399.668 1.457 1.426 2.828 3.137 3.754 1.496.812 2.492 2.433 3.703 3.703.246.262.285.527.063.844-.309.433-.235.742.394.683.442-.039.801.035 1.149.309 2.218 1.746 4.964 1.937 7.66 2.285 1.848.238 2.488.676 2.734 1.852.239 1.128-.433 2.55-1.672 3.14-1.183.563-2.441 1-3.691 1.414-.625.203-1.3.215-1.953-.07-2.781-1.234-5.649-2.09-8.758-2.348-1.54-.133-2.937-1.078-4.102-2.097-.628-.551-1.28-.88-2.078-1.168-2.566-.918-4.734-2.543-7.125-3.766-4.129-2.113-8.105-4.535-12.895-5.27-1.363-.206-2.668-.69-3.91-1.39-3.2-1.809-6.445-3.57-9.71-5.234-5.903-3.016-11.77-6.106-17.728-9.04-3.578-1.769-7.242-3.433-10.699-5.43-2.285-1.308-4.75-2.257-7.18-3.265-2.05-.851-4.066-.172-5.671.922-2.41 1.645-4.598 2.05-6.996.16-.438-.344-.98-.332-1.297.14-.328.493.023.876.445 1.184.785.575 1.539 1.2 2.355 1.723 1.973 1.27 3.157 3.125 4.504 5.082" fill="#282626"></path></g><use x="1.558" y="219.719" width="100%" height="100%" xlink:href="#b" transform="translate(-594.387 -152.649) scale(.35278)"></use><use x="33.671" y="219.719" width="100%" height="100%" xlink:href="#c" transform="translate(-593.632 -151.893) scale(.35278)"></use><g transform="translate(-594.387 -152.649) scale(.35278)"><use x="82.779" y="219.719" width="100%" height="100%" xlink:href="#d"></use><use x="131.335" y="219.719" width="100%" height="100%" xlink:href="#e"></use></g><use x="177.132" y="219.719" width="100%" height="100%" xlink:href="#e" transform="translate(-593.632 -153.405) scale(.35278)"></use><g transform="translate(-594.387 -152.649) scale(.35278)"><use x="222.929" y="219.719" width="100%" height="100%" xlink:href="#d"></use><use x="271.485" y="219.719" width="100%" height="100%" xlink:href="#c"></use><use x="320.593" y="219.719" width="100%" height="100%" xlink:href="#f"></use></g><g transform="translate(-1.304 -53.37) scale(.35278)"><use x="1.558" y="219.719" width="100%" height="100%" xlink:href="#g"></use><use x="33.671" y="219.719" width="100%" height="100%" xlink:href="#h"></use><use x="82.779" y="219.719" width="100%" height="100%" xlink:href="#i"></use><use x="131.335" y="219.719" width="100%" height="100%" xlink:href="#j"></use><use x="177.132" y="219.719" width="100%" height="100%" xlink:href="#j"></use><use x="222.929" y="219.719" width="100%" height="100%" xlink:href="#i"></use><use x="271.485" y="219.719" width="100%" height="100%" xlink:href="#h"></use><use x="320.593" y="219.719" width="100%" height="100%" xlink:href="#k"></use></g></symbol></svg>