<svg width="0" height="0" class="hidden">
  <symbol xmlns="http://www.w3.org/2000/svg" viewBox="0 0 32 32" id="date">
    <title>date</title>
    <path d="M10 12h4v4h-4zm6 0h4v4h-4zm6 0h4v4h-4zM4 24h4v4H4zm6 0h4v4h-4zm6 0h4v4h-4zm-6-6h4v4h-4zm6 0h4v4h-4zm6 0h4v4h-4zM4 18h4v4H4zM26 0v2h-4V0H8v2H4V0H0v32h30V0h-4zm2 30H2V8h26v22z"></path>
  </symbol>
  <symbol xmlns="http://www.w3.org/2000/svg" viewBox="0 0 32 32" id="difficulty">
    <title>difficulty</title>
    <path d="M9 12H3c-.55 0-1 .45-1 1v18c0 .55.45 1 1 1h6c.55 0 1-.45 1-1V13c0-.55-.45-1-1-1zm0 18H3v-8h6v8zM19 8h-6c-.55 0-1 .45-1 1v22c0 .55.45 1 1 1h6c.55 0 1-.45 1-1V9c0-.55-.45-1-1-1zm0 22h-6V20h6v10zM29 4h-6c-.55 0-1 .45-1 1v26c0 .55.45 1 1 1h6c.55 0 1-.45 1-1V5c0-.55-.45-1-1-1zm0 26h-6V18h6v12z"></path>
  </symbol>
  <symbol xmlns="http://www.w3.org/2000/svg" viewBox="0 0 32 32" id="duration">
    <title>duration</title>
    <path d="M16 6.038V4h4V2a2 2 0 00-2-2h-6a2 2 0 00-2 2v2h4v2.038C7.288 6.549 2 12.157 2 19c0 7.18 5.82 13 13 13s13-5.82 13-13c0-6.843-5.288-12.451-12-12.962zm6.071 20.033C20.182 27.96 17.671 29 15 29s-5.182-1.04-7.071-2.929C6.04 24.182 5 21.671 5 19s1.04-5.182 2.929-7.071a9.927 9.927 0 016.754-2.923l-.677 9.813c-.058.822.389 1.181.995 1.181s1.053-.36.995-1.181l-.677-9.813a9.933 9.933 0 016.754 2.923c1.889 1.889 2.929 4.4 2.929 7.071s-1.04 5.182-2.929 7.071z"></path>
  </symbol>
  <symbol xmlns="http://www.w3.org/2000/svg" viewBox="0 0 32 32" id="star">
    <title>star</title>
    <path d="M32 12.408l-11.056-1.607L16 .783l-4.944 10.018L0 12.408l8 7.798-1.889 11.011L16 26.018l9.889 5.199L24 20.206l8-7.798z"></path>
  </symbol>
  <symbol xmlns="http://www.w3.org/2000/svg" viewBox="0 0 36 32" id="users">
    <title>users</title>
    <path d="M24 24.082v-1.649c2.203-1.241 4-4.337 4-7.432 0-4.971 0-9-6-9s-6 4.029-6 9c0 3.096 1.797 6.191 4 7.432v1.649C13.216 24.637 8 27.97 8 32h28c0-4.03-5.216-7.364-12-7.918z"></path>
    <path d="M10.225 24.854c1.728-1.13 3.877-1.989 6.243-2.513a11.33 11.33 0 01-1.265-1.844c-.95-1.726-1.453-3.627-1.453-5.497 0-2.689 0-5.228.956-7.305.928-2.016 2.598-3.265 4.976-3.734C19.153 1.571 17.746 0 14 0 8 0 8 4.029 8 9c0 3.096 1.797 6.191 4 7.432v1.649c-6.784.555-12 3.888-12 7.918h8.719c.454-.403.956-.787 1.506-1.146z"></path>
  </symbol>
</svg>